PathFileType	4	(X/Y/Z)	RBDS002\RBDS002runT35.trc
DataRate	CameraRate	NumFrames	NumMarkers	Units	OrigDataRate	OrigDataStartFrame	OrigNumFrames
150.000000	150.000000	6	33	mm	150.000000	1687	4500
Frame#	Time	L.ASIS			L.Heel.Bottom			L.Heel.Lateral			L.Heel.Top			L.Iliac.Crest			L.MT1			L.MT5			L.PSIS			L.Shank.Bottom.Lateral			L.Shank.Bottom.Medial			L.Shank.Top.Lateral			L.Shank.Top.Medial			L.Thigh.Bottom.Lateral			L.Thigh.Bottom.Medial			L.Thigh.Top.Lateral			L.Thigh.Top.Medial			R.ASIS			R.ASY			R.Heel.Bottom			R.Heel.Lateral			R.Heel.Top			R.Iliac.Crest			R.MT1			R.MT5			R.PSIS			R.Shank.Bottom.Lateral			R.Shank.Bottom.Medial			R.Shank.Top.Lateral			R.Shank.Top.Medial			R.Thigh.Bottom.Lateral			R.Thigh.Bottom.Medial			R.Thigh.Top.Lateral			R.Thigh.Top.Medial			
		X1	Y1	Z1	X2	Y2	Z2	X3	Y3	Z3	X4	Y4	Z4	X5	Y5	Z5	X6	Y6	Z6	X7	Y7	Z7	X8	Y8	Z8	X9	Y9	Z9	X10	Y10	Z10	X11	Y11	Z11	X12	Y12	Z12	X13	Y13	Z13	X14	Y14	Z14	X15	Y15	Z15	X16	Y16	Z16	X17	Y17	Z17	X18	Y18	Z18	X19	Y19	Z19	X20	Y20	Z20	X21	Y21	Z21	X22	Y22	Z22	X23	Y23	Z23	X24	Y24	Z24	X25	Y25	Z25	X26	Y26	Z26	X27	Y27	Z27	X28	Y28	Z28	X29	Y29	Z29	X30	Y30	Z30	X31	Y31	Z31	X32	Y32	Z32	X33	Y33	Z33	

1688	11.24666666666667	2203.709232306035	989.5914776491049	934.5378114406636	1961.14849398621	263.167516707597	991.4844261247019	1988.41281389117	254.7470324351493	942.1618028442459	2003.858980627553	291.5891167324291	989.7602942763062	2119.256579774555	1074.102964514859	879.7843668288336	2137.752199336669	110.4729230813745	1002.547250866407	2097.991247162564	136.4991733832728	896.3500495722494	2018.806178715127	1032.278998375421	985.8476266401752	2106.637075638149	314.9391345206428	929.7796559996638	2079.652985592832	340.5822731743471	965.6564373207866	2155.545536754269	378.3516870235659	916.4229562936315	2131.232452585443	407.120500226727	954.1796606190022	2328.347854967496	608.1320278619763	899.6831345981342	2281.593358988589	577.5561801398524	947.2530528164256	2250.765293303445	683.829513682672	877.6208936865404	2207.251746106094	656.2856039343052	923.4811937749921	2200.614720415114	989.8645704731287	1147.681579826994	1831.69492534532	97.43916772733229	1085.861877130182	1639.788000140238	125.9137529320008	1086.07981750895	1666.544195875849	126.2083551775639	1125.646393732886	1671.757031321241	165.9298976743437	1088.237914173893	2116.187520855786	1068.315641339278	1196.38259191588	1851.724407827491	49.64470617518528	1041.463286821475	1816.67032637546	50.17472353885393	1150.29278122659	2019.095467251244	1039.639108615853	1074.341062528792	1786.871733946469	217.0461861433279	1143.643347560736	1753.633360827274	248.5713156892773	1114.452859091066	1829.355533472899	283.6004463539977	1164.144325221706	1797.054320878566	313.5511838045016	1131.762322187089	2026.612322473863	582.5057294248569	1179.728291121184	1969.45015410473	596.0487587122726	1133.896065162556	2030.495096398229	690.5295284908578	1202.047216554129	1975.83067771605	703.1339196017306	1159.856354692271	
1689	11.25333333333333	2205.024763031498	996.7858522890182	933.3665426464859	1982.835815307185	244.511033723744	991.9749217846595	2010.816437482691	237.7558387209273	942.7715545827801	2023.558654486816	275.7163017967659	990.3056471917155	2119.804847427519	1081.472225644609	879.418772904188	2169.240957975506	103.7935482617219	1004.030598858556	2128.085874033215	126.9077539119283	897.6662895634438	2020.387561422168	1038.681513061296	985.6739652194287	2124.993533882809	305.6701467278966	930.6097903071527	2096.256144927778	329.5214320597916	966.3401364261397	2169.717339866944	372.1065395609122	917.408062952978	2143.463179384045	399.2446345896756	955.0690739484253	2331.946076718652	616.5536094659577	900.8113948987763	2284.606333591047	585.5205456445	947.5540587650244	2254.392903037075	691.9544761020837	877.6847610236752	2210.49069388575	664.2633388154851	923.0502281831024	2202.91835890925	992.9709484924456	1146.297538606288	1814.275716966403	98.62948056356309	1087.028823173013	1624.660094888438	138.5336166315927	1086.327800527626	1651.105939090584	136.7801754955659	1126.041300787749	1658.733055849219	176.5160204172686	1089.189301494307	2123.147214296439	1073.857225502862	1194.857685126049	1829.988274778969	49.46305896679882	1041.429591894699	1795.362208099441	51.61980594967008	1150.68050954991	2021.744821627146	1045.090900969783	1074.799689539034	1772.0870109044	224.871325313842	1144.999103281409	1739.082879707801	256.0309355586575	1115.098961456152	1814.393652468079	291.5963089114734	1165.065709681058	1782.287926538465	321.2140754841623	1132.268953437955	2016.241706250459	590.6199457570938	1179.320476372041	1959.834605413863	606.3496432951276	1133.291460799597	2024.379880373901	698.3476658686114	1201.628508868813	1970.273237208991	713.0338373490159	1159.259127888977	
1690	11.26	2206.470887323465	1004.011690864897	932.2125358121774	2005.862349646118	226.2429080630836	992.8284799019176	2034.359991795802	221.1386424441487	943.7036402011635	2044.404323590952	260.0549647070409	991.1434344677364	2120.540049965698	1088.94602703444	878.9894642265658	2201.125257585674	98.08784954071558	1005.567452206809	2158.661546785651	118.1641479029246	899.1236294915536	2022.148688289166	1045.152454755664	985.4266941974478	2143.875333463562	296.4807415838063	931.550878510575	2113.54135104853	318.4612090591535	967.135019330166	2184.154544581526	365.6750428825092	918.3948936101643	2156.092706657767	391.0997124721441	955.9469775099851	2334.74870413391	624.5374395237116	901.8454670496737	2286.751033608388	593.1351820408687	947.6573474966142	2257.493579977698	699.9336984792388	877.7935485089171	2213.11456567472	672.1203437029359	922.555596153982	2205.216226851514	996.0263661226803	1144.857981162951	1797.556372016285	99.7624577457977	1088.340134397565	1611.128220829341	151.7797638938021	1086.504302636037	1637.092382228197	147.9303584081066	1126.3615562067	1647.364692620584	187.4433792854094	1090.068060088453	2130.354009406619	1079.249816700016	1193.37414070494	1808.818357137461	49.51853395598408	1041.498569313241	1774.606553752876	53.32026042593628	1151.150525731231	2024.515200800072	1050.508500839419	1075.163988540215	1758.357060596269	232.8387609729676	1146.487490650879	1725.681249200906	263.5167020502523	1115.6969144648	1800.344434826809	299.8146625726865	1166.10606707082	1768.55420394766	328.9766903055212	1132.723548182764	2006.317193733585	599.0676288916035	1179.312108550068	1950.86630263899	616.8356025084852	1132.883478154548	2018.668761602043	706.4117268764323	1201.370292563187	1965.337160928948	723.0227195557834	1158.573763188968	
1691	11.26666666666667	2208.00582224804	1011.159159221791	931.0820511442931	2030.147896185839	208.4947418913752	994.0294278879978	2058.967648870581	205.0117367735623	944.9373073082241	2066.319326301358	244.7398778317384	992.2538247628919	2121.375155410342	1096.433817393581	878.5049179928416	2233.339220486904	93.49966908465073	1007.173195181111	2189.673169021773	110.3651269875417	900.7232133333192	2024.056904709912	1051.619065511193	985.1504628208102	2163.231861023163	287.5037877401156	932.6001418895738	2131.473225179933	307.5428022426117	968.0547545099581	2198.843835938666	359.158091594466	919.3790596304186	2169.117706565859	382.7973529275583	956.8164835373973	2336.735718717304	631.9957610662111	902.793475017664	2288.002727531117	600.272112902852	947.5489303872731	2260.000580215148	707.6498785921165	877.9911759639264	2215.049159550103	679.6956158410075	922.002282913981	2207.460279304292	999.0036469828088	1143.385719324247	1781.520364037135	100.9486971615408	1089.792044021013	1599.182063878899	165.5002894783363	1086.64223846016	1624.492028585	159.5500407941365	1126.636063290296	1637.578846408877	198.5906543257108	1090.896436009644	2137.62810447617	1084.41208014671	1191.979508470371	1788.328828173477	49.92915316509942	1041.703237217499	1754.464349085091	55.3543404345367	1151.696167445962	2027.33821997285	1055.837805937927	1075.453420323981	1745.62335807561	240.8697128424973	1148.071665879991	1713.377646273439	270.9640882037476	1116.227852886657	1787.178854076576	308.167128021622	1167.22509530294	1755.827734303331	336.7614236205677	1133.096107269447	1996.867865384178	607.7092650703266	1179.681270517056	1942.537635562914	627.3308871989296	1132.674499784861	2013.337513410203	714.5967367170941	1201.265587380492	1960.987681392257	732.9434488468607	1157.810829828237	
1692	11.27333333333333	2209.592982323276	1018.116867355641	929.9906462230371	2055.580140398247	191.3985930842716	995.5479740528439	2084.536970139961	189.4990041582413	946.4402135758455	2089.193891975517	229.9043922220268	993.6023104068147	2122.227438247145	1103.847536897506	877.9838317054257	2265.769952372416	90.17937754554512	1008.878481210864	2221.046242868937	103.6226835966896	902.4748700621348	2026.072008074572	1058.007104416246	984.8874031384187	2182.991359061196	278.873960306324	933.7452371888235	2149.984748065864	296.9104871823173	969.0948084918757	2213.760231455843	352.6625154199122	920.3484004741449	2182.515162405302	374.455194279807	957.6667181127951	2337.90312990655	638.8379857900254	903.6614968595319	2288.362059584745	606.8085088714755	947.228726722709	2261.860493112422	714.9719830088305	878.3033143836751	2216.241070210211	686.8256869660922	921.392283284197	2209.601539584547	1001.887352234916	1141.913827241438	1766.141857274644	102.3385953255754	1091.382960179483	1588.734701627397	179.5397993967704	1086.789338676357	1613.230320675967	171.5286947831482	1126.90996518839	1629.224015840544	209.8520143999561	1091.711110424702	2144.789676891539	1089.294301537779	1190.704353997566	1768.618376270872	50.81844867487566	1042.08682807767	1734.995952216646	57.81271090862367	1152.320862445683	2030.138608620291	1061.027931236594	1075.688167388321	1733.803332834328	248.9104355243068	1149.716962636991	1702.087814659949	278.3450442071072	1116.692837423606	1774.859687888315	316.580875630252	1168.385781082055	1744.062929971306	344.5194850233893	1133.377019889223	1987.936373515784	616.3997950097233	1180.35853501223	1934.855199163458	637.6638787370291	1132.623689313206	2008.361245559062	722.7728404242935	1201.285062376123	1957.185892124875	742.6418942010641	1156.967800239739	
1693	11.28	2211.202549204344	1024.77744749342	928.9625168772161	2082.007656199406	175.0899210666867	997.335905911532	2110.934549325417	174.733926369609	948.1664508852109	2112.881793133825	215.6818102297009	995.1380108866964	2123.025610660072	1111.102537114106	877.4533603597934	2298.24736404506	88.26815630512647	1010.729440689189	2252.668751454648	98.05680590837548	904.3977328039232	2028.147013370337	1064.24304947795	984.6717806676188	2203.061188073453	270.7208862569308	934.9646304313723	2168.975988723476	286.7060026783765	970.2294741819845	2228.866464706557	346.2957417564468	921.2821950674578	2196.241243989325	366.1923220338174	958.4702536032016	2338.269730336037	644.9740409463739	904.4484202618203	2287.862721593517	612.6344312816861	946.7093154741376	2263.042413058169	721.7613711151266	878.7302400542404	2216.668820560732	693.3549104045727	920.7238624791692	2211.592015153869	1004.673587702212	1140.484893058958	1751.384954503009	104.1087449663701	1093.109692471014	1579.624435499968	193.7476450614515	1087.000264829326	1603.171670663989	183.7617370915501	1127.236828589642	1622.078065818583	221.1426348833547	1092.553020780196	2151.661797958468	1093.875243178893	1189.563473730697	1749.75739582749	52.30752401557016	1042.698107223162	1716.256904158697	60.7949199893729	1153.038796629904	2032.838342607032	1066.032032116789	1075.885559162395	1722.79899149311	256.9345189818194	1151.390219493822	1691.703011357606	285.6694536720495	1117.109542361667	1763.348646095119	325.0004186443263	1169.554974380715	1733.202142613061	352.2319626378269	1133.57540665799	1979.57739862775	624.9913927007981	1181.234139150938	1927.840017146676	647.6689379787426	1132.651316030003	2003.71675155564	730.8103127784536	1201.376897567616	1953.890798608713	751.9713274365608	1156.025899977375	
